<svg version="1.1" id="Layer_1" xmlns="http://www.w3.org/2000/svg" xmlns:xlink="http://www.w3.org/1999/xlink" x="0px" y="0px"
	 width="100%" viewBox="0 0 409 360" enable-background="new 0 0 409 360" xml:space="preserve">
<path fill="#FDFEFE" opacity="1.000000" stroke="none" 
	d="
M1.000000,132.000000 
	C1.000000,88.000008 1.000000,44.500015 1.000000,1.000018 
	C137.333298,1.000012 273.666595,1.000012 409.999939,1.000006 
	C409.999939,120.999947 409.999939,240.999893 409.999969,360.999878 
	C273.666748,360.999939 137.333496,360.999939 1.000117,360.999969 
	C1.000000,284.833344 1.000000,208.666672 1.000000,132.000000 
M114.356438,204.856949 
	C130.041931,212.261063 146.577072,214.352753 163.478760,211.287155 
	C199.128937,204.820999 224.945541,179.103714 231.492645,143.204010 
	C234.957825,124.203300 232.137848,105.848480 221.839249,88.317741 
	C219.547455,81.607292 214.216721,78.307617 207.822495,75.549225 
	C207.603287,75.272514 207.318054,75.151825 206.583145,74.611084 
	C200.612808,70.326630 199.210709,64.733940 202.290527,57.979179 
	C188.162369,47.518650 173.799622,38.316635 156.652939,32.997295 
	C155.763504,32.723087 154.874084,32.448875 153.305237,31.824150 
	C133.571350,25.795437 113.683380,24.720587 93.898010,31.111555 
	C64.909775,40.475185 44.872509,59.653999 32.909164,88.212807 
	C32.419025,89.829704 31.928886,91.446602 31.048710,93.699219 
	C30.875521,94.423080 30.702332,95.146935 30.071367,96.252449 
	C29.981207,96.821602 29.891047,97.390747 29.425266,98.599983 
	C28.645388,102.074402 27.865511,105.548820 26.749926,109.334068 
	C26.776485,109.906967 26.803045,110.479858 26.535477,111.793190 
	C24.345745,123.859146 24.109879,135.910751 26.543146,148.533401 
	C26.752090,149.338043 26.961035,150.142670 27.114763,151.746613 
	C27.700785,153.813034 28.286806,155.879440 28.673611,158.519867 
	C28.972246,159.242630 29.270882,159.965378 29.516321,161.440445 
	C33.554680,175.734543 39.115219,189.370834 47.084732,202.615936 
	C47.907341,203.796616 48.729950,204.977280 49.687309,206.870850 
	C57.746727,217.932968 65.806145,228.995087 74.043327,240.693527 
	C75.368881,242.116684 76.694435,243.539825 78.256126,245.591827 
	C87.330132,254.798218 96.404137,264.004608 105.766960,273.830414 
	C107.473396,275.306519 109.179832,276.782623 111.180962,278.844818 
	C121.048492,286.928619 130.916031,295.012421 141.095917,303.684906 
	C142.725464,304.799255 144.355011,305.913574 146.332855,307.596466 
	C163.916107,319.301453 181.535248,330.953217 199.048950,342.761383 
	C202.137085,344.843475 204.567749,344.652802 207.575882,342.654541 
	C223.370560,332.162415 239.271225,321.829956 255.110703,311.405060 
	C255.807266,310.946655 256.265839,310.126709 256.835266,309.475128 
	C254.703598,309.236725 253.018326,309.735779 251.388870,310.376678 
	C238.104706,315.601257 224.311188,317.613007 210.248413,315.394714 
	C182.377914,310.998291 164.492340,294.005554 153.587692,268.829254 
	C147.304779,254.323441 144.514069,238.982300 143.620163,223.242630 
	C142.812332,222.979507 142.201767,222.712082 141.563324,222.587738 
	C140.421234,222.365295 139.265823,222.200089 138.109955,222.061172 
	C123.139648,220.262085 109.420494,215.119003 96.934570,206.674744 
	C82.072990,196.623840 71.321053,183.104019 63.598026,166.485260 
	C63.220451,165.786942 62.842873,165.088623 62.357159,163.771011 
	C62.076603,163.211243 61.796043,162.651489 61.614029,161.517426 
	C61.326252,161.032898 61.038479,160.548386 60.731167,159.315033 
	C59.950924,156.910431 59.170685,154.505814 58.625172,151.478119 
	C58.330959,150.674286 58.036751,149.870438 57.774464,148.382935 
	C57.623665,147.956818 57.472866,147.530716 57.533878,146.563766 
	C57.287930,146.059631 57.041981,145.555496 56.835819,144.298080 
	C56.683376,143.565048 56.530933,142.832016 56.642330,141.286728 
	C56.316479,138.838638 55.990627,136.390549 55.809460,133.041992 
	C55.800472,129.676773 55.791485,126.311554 56.209637,122.308067 
	C56.276974,120.172897 56.344307,118.037735 56.685215,115.179459 
	C56.811478,114.156860 56.937740,113.134254 57.456200,111.871780 
	C57.677769,111.580658 57.667778,111.297714 57.699638,110.366562 
	C57.733307,109.895950 57.766975,109.425331 58.223907,108.550713 
	C58.228931,107.996323 58.233959,107.441933 58.596661,106.168884 
	C60.540573,100.640114 62.484486,95.111343 64.886497,89.177315 
	C65.115723,88.423714 65.344948,87.670113 66.011581,86.357300 
	C69.430206,79.877068 74.428009,74.278717 75.640770,66.555756 
	C76.143478,63.354431 78.394363,60.122063 80.611320,57.563217 
	C84.459122,53.122036 90.533356,53.213333 94.772263,57.177734 
	C98.622337,60.778488 99.332870,67.331474 95.535851,71.077415 
	C92.418831,74.152504 88.408279,76.322868 84.788651,78.886986 
	C83.509781,79.792931 81.671326,80.388817 81.018906,81.619560 
	C77.393806,88.458023 74.054977,95.448250 70.146980,102.776680 
	C70.036499,103.543419 69.926018,104.310158 69.417297,105.717705 
	C69.150589,106.938438 68.883873,108.159180 68.198563,109.681847 
	C68.108505,110.461861 68.018456,111.241875 67.658257,112.778191 
	C67.382668,115.199532 67.107079,117.620872 66.553551,120.609299 
	C66.590935,121.020721 66.628311,121.432144 66.361412,122.430702 
	C66.301971,123.303589 66.242531,124.176483 65.798508,125.693451 
	C65.937157,128.440643 66.075806,131.187851 66.126274,134.700058 
	C66.399948,136.462173 66.673630,138.224274 66.683662,140.348663 
	C66.859352,140.879745 67.035042,141.410843 67.135712,142.709854 
	C67.329468,143.447525 67.523232,144.185211 67.488823,145.562439 
	C67.834885,146.601425 68.180946,147.640396 68.525688,149.425507 
	C68.923409,150.591614 69.321129,151.757706 69.534317,153.508896 
	C69.855042,154.234070 70.175766,154.959259 70.569153,156.389801 
	C71.192673,158.108826 71.579506,159.965912 72.485893,161.519943 
	C74.821228,165.523911 77.386482,169.393784 79.809113,174.043152 
	C80.170334,175.114273 80.276474,176.383499 80.931274,177.226624 
	C89.871109,188.737442 100.144760,198.659393 114.356438,204.856949 
M349.584564,157.511566 
	C348.660950,159.646133 347.737335,161.780701 346.259430,164.277588 
	C342.193542,167.307205 338.369812,170.780151 333.963715,173.186935 
	C331.619720,174.467316 330.382599,175.416428 330.213898,178.094543 
	C329.805939,184.572006 329.319702,191.056122 328.491272,197.489426 
	C328.189453,199.832977 326.911072,202.076630 325.926605,204.298691 
	C325.051971,206.272888 323.360352,208.066696 323.069000,210.089844 
	C319.945587,231.779510 313.817749,252.289917 300.486725,270.131714 
	C299.734802,271.138062 299.434601,272.481934 298.924164,273.668671 
	C300.297546,273.800903 300.897278,273.523834 301.319519,273.078522 
	C313.778625,259.938934 327.049927,247.461441 338.485168,233.482346 
	C359.827850,207.391754 376.059998,178.481201 380.303864,144.271790 
	C382.979523,122.703056 380.364014,101.792030 370.643829,81.393883 
	C369.530243,79.417564 368.416626,77.441254 367.086548,74.831017 
	C360.408020,63.341335 352.411285,53.015377 340.949036,44.983852 
	C339.618530,44.098488 338.288055,43.213120 336.463257,41.823658 
	C331.026276,38.963089 325.801300,35.561413 320.116180,33.334263 
	C293.476776,22.898268 267.123840,25.610441 241.431320,36.592506 
	C230.861725,41.110397 220.942261,47.149296 210.727081,52.496353 
	C210.866608,52.959484 211.006149,53.422611 211.145676,53.885742 
	C219.245590,55.533703 221.744583,61.917355 223.872849,68.566414 
	C224.516251,70.576546 224.360550,73.062752 225.508057,74.655846 
	C233.633896,85.937256 238.441803,98.601128 241.449890,112.464600 
	C241.626801,112.979095 241.803711,113.493584 241.878967,114.864548 
	C242.265274,121.707115 242.651596,128.549683 242.734894,135.893112 
	C242.605789,137.942261 242.476669,139.991409 242.055740,142.664536 
	C242.066086,143.118713 242.076416,143.572891 241.696152,144.436508 
	C241.715744,144.971481 241.735352,145.506470 241.368607,146.781540 
	C230.694122,191.394257 201.726273,215.861053 156.808167,223.195206 
	C157.650513,245.200226 161.578094,266.201202 175.672546,283.982544 
	C184.212326,294.756134 195.162781,301.902863 209.547211,304.394135 
	C210.375748,304.460907 211.204300,304.527710 212.933289,304.856750 
	C231.591232,306.969330 248.642212,302.141602 264.185547,292.146973 
	C295.449615,272.043579 311.848480,242.520035 317.372772,206.380081 
	C317.533630,205.327652 316.579834,204.104874 316.066132,202.071045 
	C315.900330,199.695572 315.734528,197.320084 315.825836,194.227417 
	C315.834961,193.470306 315.844116,192.713196 316.299896,191.332489 
	C316.353088,189.202118 316.406281,187.071747 316.723999,184.174438 
	C316.747223,183.096817 316.770416,182.019180 317.228210,180.455750 
	C317.246796,179.614243 317.265381,178.772736 317.600372,177.203568 
	C318.279480,174.577316 317.536835,172.875656 314.864105,171.704102 
	C312.936584,170.859192 311.181244,169.405701 309.645020,167.918060 
	C297.530182,156.186447 300.414764,134.860641 319.786987,127.688576 
	C323.177185,127.370880 326.567352,127.053185 330.702698,126.955727 
	C333.169128,127.842400 335.827423,128.393036 338.069397,129.672897 
	C348.765472,135.778931 351.859528,145.345856 349.584564,157.511566 
M311.612946,156.643219 
	C314.675842,163.486160 320.055664,166.822021 327.446411,166.535126 
	C333.976868,166.281601 339.595032,161.704391 341.560455,155.593353 
	C343.609894,149.221115 341.782166,142.696884 336.762756,138.467529 
	C331.583160,134.103195 324.020782,133.578308 318.103027,137.172394 
	C311.784271,141.010010 309.566132,147.179352 311.612946,156.643219 
z"/>
<path fill="#02AEEF" opacity="1.000000" stroke="none" 
	d="
M315.853241,191.956085 
	C315.844116,192.713196 315.834961,193.470306 315.396576,194.671707 
	C311.004059,199.472580 306.975250,203.773010 303.146790,208.244995 
	C302.557739,208.933044 302.890656,210.410355 302.829559,211.137466 
	C307.553955,208.236771 311.849854,205.599152 316.145752,202.961533 
	C316.579834,204.104874 317.533630,205.327652 317.372772,206.380081 
	C311.848480,242.520035 295.449615,272.043579 264.185547,292.146973 
	C248.642212,302.141602 231.591232,306.969330 212.495453,304.377991 
	C214.419098,301.593079 216.802582,299.308929 219.137253,296.975891 
	C223.327423,292.788696 227.619019,288.688873 231.558640,284.276123 
	C232.418030,283.313507 231.975739,281.188782 232.132950,279.599274 
	C229.728165,280.610748 228.680771,281.863190 227.501083,282.975281 
	C222.721405,287.481079 217.704636,291.757080 213.188309,296.510223 
	C211.269424,298.529724 210.367752,301.515717 209.003799,304.062469 
	C195.162781,301.902863 184.212326,294.756134 175.672546,283.982544 
	C161.578094,266.201202 157.650513,245.200226 156.808167,223.195206 
	C201.726273,215.861053 230.694122,191.394257 241.783966,146.326004 
	C242.161789,145.255997 242.124268,144.641541 242.086761,144.027069 
	C242.076416,143.572891 242.066086,143.118713 242.555298,142.347809 
	C244.064545,141.604095 245.311356,141.421967 246.045868,140.710754 
	C251.176987,135.742401 256.206177,130.668640 261.245331,125.606064 
	C261.432922,125.417618 261.387238,124.996986 261.794250,122.979439 
	C259.195709,124.056755 257.270630,124.474373 255.808960,125.532288 
	C251.454330,128.684067 247.281647,132.087280 243.037903,135.392258 
	C242.651596,128.549683 242.265274,121.707115 242.145416,114.311951 
	C242.178085,113.159660 241.944305,112.559975 241.710541,111.960281 
	C238.441803,98.601128 233.633896,85.937256 225.508057,74.655846 
	C224.360550,73.062752 224.516251,70.576546 223.872849,68.566414 
	C221.744583,61.917355 219.245590,55.533703 211.145676,53.885742 
	C211.006149,53.422611 210.866608,52.959484 210.727081,52.496353 
	C220.942261,47.149296 230.861725,41.110397 241.431320,36.592506 
	C267.123840,25.610441 293.476776,22.898268 320.116180,33.334263 
	C325.801300,35.561413 331.026276,38.963089 336.704285,42.414085 
	C335.126770,45.013062 333.113403,46.885155 331.570709,49.087021 
	C330.784821,50.208755 330.844788,51.923107 330.522369,53.369583 
	C331.076294,53.557079 331.630219,53.744579 332.184143,53.932076 
	C335.192596,51.127663 338.201050,48.323250 341.209534,45.518845 
	C352.411285,53.015377 360.408020,63.341335 367.099060,75.567337 
	C366.421692,78.690163 365.731812,81.076660 364.804230,84.285324 
	C367.682037,83.191292 369.147461,82.634186 370.612915,82.077080 
	C380.364014,101.792030 382.979523,122.703056 380.303864,144.271790 
	C376.059998,178.481201 359.827850,207.391754 338.485168,233.482346 
	C327.049927,247.461441 313.778625,259.938934 301.319519,273.078522 
	C300.897278,273.523834 300.297546,273.800903 298.924164,273.668671 
	C299.434601,272.481934 299.734802,271.138062 300.486725,270.131714 
	C313.817749,252.289917 319.945587,231.779510 323.069000,210.089844 
	C323.360352,208.066696 325.051971,206.272888 325.926605,204.298691 
	C326.911072,202.076630 328.189453,199.832977 328.491272,197.489426 
	C329.319702,191.056122 329.805939,184.572006 330.213898,178.094543 
	C330.382599,175.416428 331.619720,174.467316 333.963715,173.186935 
	C338.369812,170.780151 342.193542,167.307205 346.886597,164.148056 
	C348.683258,164.583984 349.852722,165.149445 350.322876,165.376770 
	C357.915802,157.871918 365.275970,150.597122 372.636139,143.322327 
	C372.352234,142.757278 372.068359,142.192215 371.784454,141.627167 
	C370.354370,142.092194 368.550415,142.161133 367.561920,143.094086 
	C364.140320,146.323273 361.230743,150.119827 357.670105,153.167450 
	C355.569489,154.965454 352.608521,155.758240 350.034454,157.003098 
	C351.859528,145.345856 348.765472,135.778931 338.069397,129.672897 
	C335.827423,128.393036 333.169128,127.842400 330.111694,126.608330 
	C329.059143,125.639168 328.090210,124.604225 328.210632,124.456352 
	C330.911957,121.138985 333.406982,117.532860 336.637177,114.806023 
	C339.115265,112.714134 340.747314,111.348465 338.245605,108.260376 
	C335.577423,110.600250 333.102814,112.495331 330.958252,114.710007 
	C326.863129,118.939018 322.956055,123.350121 318.970947,127.685638 
	C300.414764,134.860641 297.530182,156.186447 309.645020,167.918060 
	C311.181244,169.405701 312.936584,170.859192 314.864105,171.704102 
	C317.536835,172.875656 318.279480,174.577316 317.191528,177.674454 
	C316.786346,179.077408 316.790009,180.009491 316.793640,180.941559 
	C316.770416,182.019180 316.747223,183.096817 316.275330,184.698349 
	C315.835510,187.466873 315.844360,189.711472 315.853241,191.956085 
M257.078827,257.402405 
	C261.940521,253.125275 266.836060,248.885666 271.644867,244.549911 
	C273.246368,243.105972 274.642944,241.431305 276.100372,239.832184 
	C277.061279,238.777924 278.107452,237.752350 278.801971,236.535080 
	C279.002747,236.183151 277.879852,234.579269 277.767731,234.621521 
	C276.491486,235.102341 275.087250,235.565750 274.108795,236.461533 
	C268.455658,241.637100 262.897186,246.916382 257.332062,252.187408 
	C255.893509,253.549973 254.033264,254.924011 257.078827,257.402405 
M179.331863,271.573822 
	C184.170609,266.612457 188.977203,261.619019 193.872849,256.714417 
	C194.966476,255.618774 196.286987,254.676041 197.652496,253.940323 
	C200.675980,252.311279 201.685715,250.375717 198.840332,246.790253 
	C191.713242,254.069656 184.793045,261.052063 178.052597,268.203888 
	C177.573990,268.711700 178.416580,270.464722 179.331863,271.573822 
M229.690445,221.257797 
	C233.067841,218.141510 236.454071,215.034714 239.818481,211.904480 
	C241.254150,210.568741 242.476624,208.924271 244.093262,207.880646 
	C246.740295,206.171860 247.139175,203.450546 243.462067,200.327896 
	C237.095032,207.055649 230.820511,213.885056 224.758301,220.897995 
	C223.961853,221.819321 224.251892,223.679840 223.864655,226.269531 
	C226.561096,223.979034 227.871338,222.866058 229.690445,221.257797 
M275.671478,170.140991 
	C274.100586,171.608780 272.563293,173.114716 270.951019,174.535583 
	C268.422241,176.764175 269.025085,178.371384 272.095581,179.797546 
	C279.136444,172.371674 286.203003,164.918701 293.269562,157.465714 
	C292.792511,157.007141 292.315491,156.548569 291.838470,156.089981 
	C285.219757,158.937851 280.937988,164.583328 275.671478,170.140991 
M294.889496,92.478691 
	C299.067902,87.779900 303.246277,83.081116 307.424683,78.382332 
	C307.088196,78.028496 306.751709,77.674660 306.415253,77.320824 
	C305.688538,77.515724 304.760864,77.489227 304.265472,77.938957 
	C297.478912,84.099747 290.685181,90.257790 284.129700,96.658737 
	C283.568420,97.206818 284.688385,99.476761 285.020172,100.915680 
	C288.692749,97.721809 291.485291,95.293259 294.889496,92.478691 
M268.820068,48.195274 
	C263.351440,53.496841 257.835724,58.751686 252.474167,64.159424 
	C251.807907,64.831444 251.960083,66.314926 251.733017,67.422394 
	C252.289124,67.739189 252.845245,68.055992 253.401352,68.372795 
	C260.955780,61.026150 268.510193,53.679508 276.064606,46.332867 
	C275.637695,45.746849 275.210815,45.160831 274.783905,44.574814 
	C272.923492,45.575668 271.063080,46.576527 268.820068,48.195274 
z"/>
<path fill="#343995" opacity="1.000000" stroke="none" 
	d="
M33.390282,87.827469 
	C44.872509,59.653999 64.909775,40.475185 93.898010,31.111555 
	C113.683380,24.720587 133.571350,25.795437 153.583374,32.324009 
	C149.952744,37.004143 146.147766,41.288548 142.096954,45.326302 
	C139.599228,47.815987 139.878815,49.358898 142.866684,50.649212 
	C145.115509,47.953819 146.752274,44.287334 149.465469,43.117588 
	C154.184189,41.083202 155.234070,37.070282 157.118286,33.315155 
	C173.799622,38.316635 188.162369,47.518650 202.290527,57.979179 
	C199.210709,64.733940 200.612808,70.326630 206.900497,75.088982 
	C207.433304,75.797516 207.696503,75.939888 208.007477,75.993980 
	C214.216721,78.307617 219.547455,81.607292 221.917603,89.026138 
	C223.816772,95.304726 220.128052,96.845001 215.669189,97.788116 
	C209.393051,85.213570 200.303360,75.628120 189.131042,67.739525 
	C191.325348,64.529724 193.364288,61.627045 195.403229,58.724365 
	C194.561234,59.991058 192.368622,60.667282 190.339432,61.673191 
	C188.343872,62.662434 186.514160,63.986221 184.267349,65.114212 
	C168.581177,57.401390 152.623642,54.666622 135.542496,57.843864 
	C90.908798,66.146133 64.124603,113.729820 80.477196,156.040070 
	C82.122398,160.296814 83.449387,164.676559 84.553085,169.004974 
	C82.741364,170.446228 81.300613,171.881729 79.859863,173.317230 
	C77.386482,169.393784 74.821228,165.523911 72.485893,161.519943 
	C71.579506,159.965912 71.192673,158.108826 70.669868,155.726593 
	C70.420006,154.350189 70.069427,153.637009 69.718849,152.923813 
	C69.321129,151.757706 68.923409,150.591614 68.662437,148.703659 
	C68.438454,146.962173 68.077721,145.942520 67.716995,144.922882 
	C67.523232,144.185211 67.329468,143.447525 67.379532,142.168671 
	C67.397995,141.080460 67.172653,140.533417 66.947304,139.986389 
	C66.673630,138.224274 66.399948,136.462173 66.423492,134.028198 
	C66.541512,130.587341 66.362305,127.818352 66.183098,125.049370 
	C66.242531,124.176483 66.301971,123.303589 66.891068,122.170349 
	C68.679527,121.589310 69.938332,121.268623 71.197128,120.947937 
	C71.144859,120.646027 71.092598,120.344124 71.040337,120.042213 
	C69.637383,120.042213 68.234436,120.042213 66.831482,120.042213 
	C67.107079,117.620872 67.382668,115.199532 68.082397,112.161743 
	C68.543419,110.823502 68.580284,110.101707 68.617157,109.379913 
	C68.883873,108.159180 69.150589,106.938438 69.883301,105.232025 
	C70.438934,103.959740 70.528557,103.173141 70.618179,102.386536 
	C74.054977,95.448250 77.393806,88.458023 81.018906,81.619560 
	C81.671326,80.388817 83.509781,79.792931 84.788651,78.886986 
	C88.408279,76.322868 92.418831,74.152504 95.535851,71.077415 
	C99.332870,67.331474 98.622337,60.778488 94.772263,57.177734 
	C90.533356,53.213333 84.459122,53.122036 80.611320,57.563217 
	C78.394363,60.122063 76.143478,63.354431 75.640770,66.555756 
	C74.428009,74.278717 69.430206,79.877068 65.470673,86.748260 
	C64.762634,87.953674 64.595520,88.768127 64.428398,89.582573 
	C62.484486,95.111343 60.540573,100.640114 58.194443,106.611755 
	C57.795033,107.687988 57.797840,108.321350 57.800648,108.954720 
	C57.766975,109.425331 57.733307,109.895950 57.411621,110.836365 
	C56.970924,111.564812 56.951057,111.833305 57.064003,112.111656 
	C56.937740,113.134254 56.811478,114.156860 56.239853,115.693451 
	C55.790489,118.453743 55.786495,120.700035 55.782497,122.946335 
	C55.791485,126.311554 55.800472,129.676773 55.404953,133.590591 
	C55.459797,136.792450 55.919144,139.445724 56.378490,142.098984 
	C56.530933,142.832016 56.683376,143.565048 56.619682,144.812866 
	C56.709717,145.919983 57.015888,146.512283 57.322063,147.104599 
	C57.472866,147.530716 57.623665,147.956818 57.545822,148.908661 
	C57.674938,150.323334 58.032692,151.212280 58.390450,152.101212 
	C59.170685,154.505814 59.950924,156.910431 60.546932,159.843262 
	C60.746960,160.944885 61.131222,161.518311 61.515488,162.091721 
	C61.796043,162.651489 62.076603,163.211243 62.282471,164.405090 
	C62.647453,165.722275 63.087120,166.405380 63.526787,167.088486 
	C71.321053,183.104019 82.072990,196.623840 96.934570,206.674744 
	C109.420494,215.119003 123.139648,220.262085 138.109955,222.061172 
	C139.265823,222.200089 140.421234,222.365295 141.563324,222.587738 
	C142.201767,222.712082 142.812332,222.979507 143.620163,223.242630 
	C144.514069,238.982300 147.304779,254.323441 153.587692,268.829254 
	C164.492340,294.005554 182.377914,310.998291 210.248413,315.394714 
	C224.311188,317.613007 238.104706,315.601257 251.388870,310.376678 
	C253.018326,309.735779 254.703598,309.236725 256.835266,309.475128 
	C256.265839,310.126709 255.807266,310.946655 255.110703,311.405060 
	C239.271225,321.829956 223.370560,332.162415 207.575882,342.654541 
	C204.567749,344.652802 202.137085,344.843475 199.048950,342.761383 
	C181.535248,330.953217 163.916107,319.301453 146.302399,306.986145 
	C148.858078,302.844177 151.444199,299.312500 154.030319,295.780853 
	C151.880737,295.781891 149.915207,296.567383 148.178192,297.702515 
	C145.627625,299.369354 143.240387,301.286041 140.783569,303.096252 
	C130.916031,295.012421 121.048492,286.928619 111.094803,278.183472 
	C113.870110,273.363373 115.160217,268.136566 120.761925,265.937103 
	C123.760033,264.759949 122.177422,262.682434 120.377609,261.784760 
	C115.218567,265.741180 110.348351,269.476074 105.478134,273.210999 
	C96.404137,264.004608 87.330132,254.798218 78.342377,245.007141 
	C79.629990,242.743317 80.802803,241.042786 82.041519,239.391693 
	C83.077881,238.010330 84.010063,236.465363 85.317665,235.395157 
	C86.862549,234.130737 88.761261,233.298645 90.506599,232.279129 
	C90.052231,231.582779 89.597862,230.886429 89.143494,230.190079 
	C86.908226,231.482010 84.611526,232.679825 82.452705,234.088882 
	C79.534866,235.993362 76.722946,238.060089 73.865570,240.057190 
	C65.806145,228.995087 57.746727,217.932968 49.968246,206.376404 
	C52.836285,203.691162 55.423389,201.500366 58.010494,199.309555 
	C56.138504,198.777863 54.360706,199.097076 52.669827,199.671921 
	C50.751858,200.323990 48.911716,201.204971 47.037739,201.986435 
	C39.115219,189.370834 33.554680,175.734543 29.665508,160.759094 
	C29.500740,159.367111 29.186783,158.656494 28.872828,157.945862 
	C28.286806,155.879440 27.700785,153.813034 27.359470,151.179672 
	C27.336517,149.722092 27.068855,148.831467 26.801193,147.940826 
	C24.109879,135.910751 24.345745,123.859146 26.930779,111.298439 
	C27.245930,110.210205 27.165781,109.616722 27.085632,109.023239 
	C27.865511,105.548820 28.645388,102.074402 29.943336,98.255295 
	C30.483984,97.230667 30.506563,96.550735 30.529144,95.870796 
	C30.702332,95.146935 30.875521,94.423080 31.591131,93.367676 
	C34.554546,91.722160 36.975536,90.408180 39.396530,89.094200 
	C39.214123,88.763428 39.031715,88.432663 38.849312,88.101891 
	C37.029636,88.010414 35.209957,87.918945 33.390282,87.827469 
M73.001556,49.498177 
	C69.838181,52.843975 66.582237,56.109833 63.575809,59.591171 
	C62.814014,60.473305 62.847198,62.041969 62.515087,63.295174 
	C63.192356,63.621181 63.869625,63.947189 64.546898,64.273201 
	C71.612450,56.835949 78.678001,49.398705 85.743553,41.961456 
	C85.559631,41.561306 85.375710,41.161156 85.191795,40.761005 
	C83.512253,41.304802 81.527184,41.456821 80.219124,42.476948 
	C77.772896,44.384689 75.719360,46.795971 73.001556,49.498177 
z"/>
<path fill="#3C3F99" opacity="1.000000" stroke="none" 
	d="
M215.937134,98.017952 
	C220.128052,96.845001 223.816772,95.304726 221.997818,89.369141 
	C232.137848,105.848480 234.957825,124.203300 231.492645,143.204010 
	C224.945541,179.103714 199.128937,204.820999 163.478760,211.287155 
	C146.577072,214.352753 130.041931,212.261063 114.169907,204.239105 
	C115.820679,201.666382 117.657982,199.711487 119.854782,197.818604 
	C121.300186,198.548172 122.333046,199.679947 123.480286,199.811081 
	C134.288666,201.046509 145.240875,203.745377 155.916656,202.933334 
	C195.495682,199.922852 224.670914,166.604782 222.619125,126.935562 
	C222.115967,117.207176 218.254593,107.652496 215.937134,98.017952 
M120.411217,201.481949 
	C120.411217,201.481949 120.520943,201.417206 120.411217,201.481949 
z"/>
<path fill="#363B96" opacity="1.000000" stroke="none" 
	d="
M311.488312,156.279968 
	C309.566132,147.179352 311.784271,141.010010 318.103027,137.172394 
	C324.020782,133.578308 331.583160,134.103195 336.762756,138.467529 
	C341.782166,142.696884 343.609894,149.221115 341.560455,155.593353 
	C339.595032,161.704391 333.976868,166.281601 327.446411,166.535126 
	C320.055664,166.822021 314.675842,163.486160 311.488312,156.279968 
z"/>
<path fill="#3A3D97" opacity="1.000000" stroke="none" 
	d="
M119.495293,197.756607 
	C117.657982,199.711487 115.820679,201.666382 113.927689,203.997040 
	C100.144760,198.659393 89.871109,188.737442 80.931274,177.226624 
	C80.276474,176.383499 80.170334,175.114273 79.834488,173.680191 
	C81.300613,171.881729 82.741364,170.446228 84.765800,169.283539 
	C86.056839,169.954895 86.994263,170.182083 87.437515,170.777298 
	C96.011353,182.290298 106.576118,191.416824 119.495293,197.756607 
z"/>
<path fill="#1AB4EF" opacity="1.000000" stroke="none" 
	d="
M349.809509,157.257324 
	C352.608521,155.758240 355.569489,154.965454 357.670105,153.167450 
	C361.230743,150.119827 364.140320,146.323273 367.561920,143.094086 
	C368.550415,142.161133 370.354370,142.092194 371.784454,141.627167 
	C372.068359,142.192215 372.352234,142.757278 372.636139,143.322327 
	C365.275970,150.597122 357.915802,157.871918 350.322876,165.376770 
	C349.852722,165.149445 348.683258,164.583984 347.163757,163.966904 
	C347.737335,161.780701 348.660950,159.646133 349.809509,157.257324 
z"/>
<path fill="#12B2F0" opacity="1.000000" stroke="none" 
	d="
M209.275513,304.228302 
	C210.367752,301.515717 211.269424,298.529724 213.188309,296.510223 
	C217.704636,291.757080 222.721405,287.481079 227.501083,282.975281 
	C228.680771,281.863190 229.728165,280.610748 232.132950,279.599274 
	C231.975739,281.188782 232.418030,283.313507 231.558640,284.276123 
	C227.619019,288.688873 223.327423,292.788696 219.137253,296.975891 
	C216.802582,299.308929 214.419098,301.593079 212.045227,304.246887 
	C211.204300,304.527710 210.375748,304.460907 209.275513,304.228302 
z"/>
<path fill="#16B3EF" opacity="1.000000" stroke="none" 
	d="
M319.378967,127.687103 
	C322.956055,123.350121 326.863129,118.939018 330.958252,114.710007 
	C333.102814,112.495331 335.577423,110.600250 338.245605,108.260376 
	C340.747314,111.348465 339.115265,112.714134 336.637177,114.806023 
	C333.406982,117.532860 330.911957,121.138985 328.210632,124.456352 
	C328.090210,124.604225 329.059143,125.639168 329.739105,126.498215 
	C326.567352,127.053185 323.177185,127.370880 319.378967,127.687103 
z"/>
<path fill="#18B3F0" opacity="1.000000" stroke="none" 
	d="
M242.886383,135.642685 
	C247.281647,132.087280 251.454330,128.684067 255.808960,125.532288 
	C257.270630,124.474373 259.195709,124.056755 261.794250,122.979439 
	C261.387238,124.996986 261.432922,125.417618 261.245331,125.606064 
	C256.206177,130.668640 251.176987,135.742401 246.045868,140.710754 
	C245.311356,141.421967 244.064545,141.604095 242.701202,142.035828 
	C242.476669,139.991409 242.605789,137.942261 242.886383,135.642685 
z"/>
<path fill="#3E439C" opacity="1.000000" stroke="none" 
	d="
M156.885620,33.156227 
	C155.234070,37.070282 154.184189,41.083202 149.465469,43.117588 
	C146.752274,44.287334 145.115509,47.953819 142.866684,50.649212 
	C139.878815,49.358898 139.599228,47.815987 142.096954,45.326302 
	C146.147766,41.288548 149.952744,37.004143 153.923065,32.499268 
	C154.874084,32.448875 155.763504,32.723087 156.885620,33.156227 
z"/>
<path fill="#41469D" opacity="1.000000" stroke="none" 
	d="
M105.622543,273.520691 
	C110.348351,269.476074 115.218567,265.741180 120.377609,261.784760 
	C122.177422,262.682434 123.760033,264.759949 120.761925,265.937103 
	C115.160217,268.136566 113.870110,273.363373 110.947464,277.890442 
	C109.179832,276.782623 107.473396,275.306519 105.622543,273.520691 
z"/>
<path fill="#23B7F0" opacity="1.000000" stroke="none" 
	d="
M316.105957,202.516296 
	C311.849854,205.599152 307.553955,208.236771 302.829559,211.137466 
	C302.890656,210.410355 302.557739,208.933044 303.146790,208.244995 
	C306.975250,203.773010 311.004059,199.472580 315.268005,195.030304 
	C315.734528,197.320084 315.900330,199.695572 316.105957,202.516296 
z"/>
<path fill="#40459C" opacity="1.000000" stroke="none" 
	d="
M73.954453,240.375366 
	C76.722946,238.060089 79.534866,235.993362 82.452705,234.088882 
	C84.611526,232.679825 86.908226,231.482010 89.143494,230.190079 
	C89.597862,230.886429 90.052231,231.582779 90.506599,232.279129 
	C88.761261,233.298645 86.862549,234.130737 85.317665,235.395157 
	C84.010063,236.465363 83.077881,238.010330 82.041519,239.391693 
	C80.802803,241.042786 79.629990,242.743317 78.224312,244.692703 
	C76.694435,243.539825 75.368881,242.116684 73.954453,240.375366 
z"/>
<path fill="#18B3F0" opacity="1.000000" stroke="none" 
	d="
M341.079285,45.251347 
	C338.201050,48.323250 335.192596,51.127663 332.184143,53.932076 
	C331.630219,53.744579 331.076294,53.557079 330.522369,53.369583 
	C330.844788,51.923107 330.784821,50.208755 331.570709,49.087021 
	C333.113403,46.885155 335.126770,45.013062 336.951477,42.666134 
	C338.288055,43.213120 339.618530,44.098488 341.079285,45.251347 
z"/>
<path fill="#40459C" opacity="1.000000" stroke="none" 
	d="
M140.939728,303.390564 
	C143.240387,301.286041 145.627625,299.369354 148.178192,297.702515 
	C149.915207,296.567383 151.880737,295.781891 154.030319,295.780853 
	C151.444199,299.312500 148.858078,302.844177 146.128265,306.701843 
	C144.355011,305.913574 142.725464,304.799255 140.939728,303.390564 
z"/>
<path fill="#42459B" opacity="1.000000" stroke="none" 
	d="
M47.061234,202.301178 
	C48.911716,201.204971 50.751858,200.323990 52.669827,199.671921 
	C54.360706,199.097076 56.138504,198.777863 58.010494,199.309555 
	C55.423389,201.500366 52.836285,203.691162 49.900871,206.019958 
	C48.729950,204.977280 47.907341,203.796616 47.061234,202.301178 
z"/>
<path fill="#2ABAF0" opacity="1.000000" stroke="none" 
	d="
M370.628357,81.735481 
	C369.147461,82.634186 367.682037,83.191292 364.804230,84.285324 
	C365.731812,81.076660 366.421692,78.690163 367.207306,75.884300 
	C368.416626,77.441254 369.530243,79.417564 370.628357,81.735481 
z"/>
<path fill="#4C4EA0" opacity="1.000000" stroke="none" 
	d="
M33.149723,88.020142 
	C35.209957,87.918945 37.029636,88.010414 38.849312,88.101891 
	C39.031715,88.432663 39.214123,88.763428 39.396530,89.094200 
	C36.975536,90.408180 34.554546,91.722160 31.786150,93.049820 
	C31.928886,91.446602 32.419025,89.829704 33.149723,88.020142 
z"/>
<path fill="#5A5DA9" opacity="1.000000" stroke="none" 
	d="
M56.510410,141.692856 
	C55.919144,139.445724 55.459797,136.792450 55.332611,134.040833 
	C55.990627,136.390549 56.316479,138.838638 56.510410,141.692856 
z"/>
<path fill="#5155A3" opacity="1.000000" stroke="none" 
	d="
M65.990799,125.371414 
	C66.362305,127.818352 66.541512,130.587341 66.467590,133.645691 
	C66.075806,131.187851 65.937157,128.440643 65.990799,125.371414 
z"/>
<path fill="#5A5DA9" opacity="1.000000" stroke="none" 
	d="
M55.996067,122.627197 
	C55.786495,120.700035 55.790489,118.453743 56.103065,116.055008 
	C56.344307,118.037735 56.276974,120.172897 55.996067,122.627197 
z"/>
<path fill="#23B7F0" opacity="1.000000" stroke="none" 
	d="
M316.076569,191.644287 
	C315.844360,189.711472 315.835510,187.466873 316.143066,185.081818 
	C316.406281,187.071747 316.353088,189.202118 316.076569,191.644287 
z"/>
<path fill="#5155A3" opacity="1.000000" stroke="none" 
	d="
M66.692520,120.325760 
	C68.234436,120.042213 69.637383,120.042213 71.040337,120.042213 
	C71.092598,120.344124 71.144859,120.646027 71.197128,120.947937 
	C69.938332,121.268623 68.679527,121.589310 67.043213,121.876785 
	C66.628311,121.432144 66.590935,121.020721 66.692520,120.325760 
z"/>
<path fill="#4C4EA0" opacity="1.000000" stroke="none" 
	d="
M26.672169,148.237122 
	C27.068855,148.831467 27.336517,149.722092 27.387077,150.780029 
	C26.961035,150.142670 26.752090,149.338043 26.672169,148.237122 
z"/>
<path fill="#5A5DA9" opacity="1.000000" stroke="none" 
	d="
M58.507812,151.789673 
	C58.032692,151.212280 57.674938,150.323334 57.529861,149.250504 
	C58.036751,149.870438 58.330959,150.674286 58.507812,151.789673 
z"/>
<path fill="#5155A3" opacity="1.000000" stroke="none" 
	d="
M67.602905,145.242661 
	C68.077721,145.942520 68.438454,146.962173 68.663101,148.330597 
	C68.180946,147.640396 67.834885,146.601425 67.602905,145.242661 
z"/>
<path fill="#23B7F0" opacity="1.000000" stroke="none" 
	d="
M317.010925,180.698654 
	C316.790009,180.009491 316.786346,179.077408 317.033325,178.038284 
	C317.265381,178.772736 317.246796,179.614243 317.010925,180.698654 
z"/>
<path fill="#5A5DA9" opacity="1.000000" stroke="none" 
	d="
M64.657448,89.379944 
	C64.595520,88.768127 64.762634,87.953674 65.251968,87.027870 
	C65.344948,87.670113 65.115723,88.423714 64.657448,89.379944 
z"/>
<path fill="#5155A3" opacity="1.000000" stroke="none" 
	d="
M69.626587,153.216354 
	C70.069427,153.637009 70.420006,154.350189 70.633537,155.373901 
	C70.175766,154.959259 69.855042,154.234070 69.626587,153.216354 
z"/>
<path fill="#5A5DA9" opacity="1.000000" stroke="none" 
	d="
M63.562408,166.786865 
	C63.087120,166.405380 62.647453,165.722275 62.336540,164.714737 
	C62.842873,165.088623 63.220451,165.786942 63.562408,166.786865 
z"/>
<path fill="#5A5DA9" opacity="1.000000" stroke="none" 
	d="
M61.564758,161.804565 
	C61.131222,161.518311 60.746960,160.944885 60.556702,160.217667 
	C61.038479,160.548386 61.326252,161.032898 61.564758,161.804565 
z"/>
<path fill="#4C4EA0" opacity="1.000000" stroke="none" 
	d="
M28.773220,158.232864 
	C29.186783,158.656494 29.500740,159.367111 29.692108,160.382935 
	C29.270882,159.965378 28.972246,159.242630 28.773220,158.232864 
z"/>
<path fill="#4C4EA0" opacity="1.000000" stroke="none" 
	d="
M30.300255,96.061623 
	C30.506563,96.550735 30.483984,97.230667 30.131145,97.935257 
	C29.891047,97.390747 29.981207,96.821602 30.300255,96.061623 
z"/>
<path fill="#5A5DA9" opacity="1.000000" stroke="none" 
	d="
M57.427971,146.834183 
	C57.015888,146.512283 56.709717,145.919983 56.599789,145.189514 
	C57.041981,145.555496 57.287930,146.059631 57.427971,146.834183 
z"/>
<path fill="#18B3F0" opacity="1.000000" stroke="none" 
	d="
M241.891449,144.231781 
	C242.124268,144.641541 242.161789,145.255997 241.977127,145.955963 
	C241.735352,145.506470 241.715744,144.971481 241.891449,144.231781 
z"/>
<path fill="#5155A3" opacity="1.000000" stroke="none" 
	d="
M70.382584,102.581604 
	C70.528557,103.173141 70.438934,103.959740 70.082420,104.911621 
	C69.926018,104.310158 70.036499,103.543419 70.382584,102.581604 
z"/>
<path fill="#5A5DA9" opacity="1.000000" stroke="none" 
	d="
M58.012276,108.752716 
	C57.797840,108.321350 57.795033,107.687988 58.015606,106.971085 
	C58.233959,107.441933 58.228931,107.996323 58.012276,108.752716 
z"/>
<path fill="#5155A3" opacity="1.000000" stroke="none" 
	d="
M66.815483,140.167526 
	C67.172653,140.533417 67.397995,141.080460 67.417038,141.784698 
	C67.035042,141.410843 66.859352,140.879745 66.815483,140.167526 
z"/>
<path fill="#4C4EA0" opacity="1.000000" stroke="none" 
	d="
M26.917778,109.178650 
	C27.165781,109.616722 27.245930,110.210205 27.077843,110.928223 
	C26.803045,110.479858 26.776485,109.906967 26.917778,109.178650 
z"/>
<path fill="#5155A3" opacity="1.000000" stroke="none" 
	d="
M68.407860,109.530884 
	C68.580284,110.101707 68.543419,110.823502 68.217468,111.783592 
	C68.018456,111.241875 68.108505,110.461861 68.407860,109.530884 
z"/>
<path fill="#18B3F0" opacity="1.000000" stroke="none" 
	d="
M241.580200,112.212448 
	C241.944305,112.559975 242.178085,113.159660 242.196243,113.883713 
	C241.803711,113.493584 241.626801,112.979095 241.580200,112.212448 
z"/>
<path fill="#5A5DA9" opacity="1.000000" stroke="none" 
	d="
M57.260101,111.991714 
	C56.951057,111.833305 56.970924,111.564812 57.274918,111.164566 
	C57.667778,111.297714 57.677769,111.580658 57.260101,111.991714 
z"/>
<path fill="#3C3F99" opacity="1.000000" stroke="none" 
	d="
M207.914978,75.771606 
	C207.696503,75.939888 207.433304,75.797516 207.092316,75.377022 
	C207.318054,75.151825 207.603287,75.272514 207.914978,75.771606 
z"/>
<path fill="#10B1EF" opacity="1.000000" stroke="none" 
	d="
M256.804382,257.192078 
	C254.033264,254.924011 255.893509,253.549973 257.332062,252.187408 
	C262.897186,246.916382 268.455658,241.637100 274.108795,236.461533 
	C275.087250,235.565750 276.491486,235.102341 277.767731,234.621521 
	C277.879852,234.579269 279.002747,236.183151 278.801971,236.535080 
	C278.107452,237.752350 277.061279,238.777924 276.100372,239.832184 
	C274.642944,241.431305 273.246368,243.105972 271.644867,244.549911 
	C266.836060,248.885666 261.940521,253.125275 256.804382,257.192078 
z"/>
<path fill="#10B1F0" opacity="1.000000" stroke="none" 
	d="
M178.988342,271.606293 
	C178.416580,270.464722 177.573990,268.711700 178.052597,268.203888 
	C184.793045,261.052063 191.713242,254.069656 198.840332,246.790253 
	C201.685715,250.375717 200.675980,252.311279 197.652496,253.940323 
	C196.286987,254.676041 194.966476,255.618774 193.872849,256.714417 
	C188.977203,261.619019 184.170609,266.612457 178.988342,271.606293 
z"/>
<path fill="#10B1F0" opacity="1.000000" stroke="none" 
	d="
M229.436005,221.505432 
	C227.871338,222.866058 226.561096,223.979034 223.864655,226.269531 
	C224.251892,223.679840 223.961853,221.819321 224.758301,220.897995 
	C230.820511,213.885056 237.095032,207.055649 243.462067,200.327896 
	C247.139175,203.450546 246.740295,206.171860 244.093262,207.880646 
	C242.476624,208.924271 241.254150,210.568741 239.818481,211.904480 
	C236.454071,215.034714 233.067841,218.141510 229.436005,221.505432 
z"/>
<path fill="#10B1EF" opacity="1.000000" stroke="none" 
	d="
M275.974945,169.958740 
	C280.937988,164.583328 285.219757,158.937851 291.838470,156.089981 
	C292.315491,156.548569 292.792511,157.007141 293.269562,157.465714 
	C286.203003,164.918701 279.136444,172.371674 272.095581,179.797546 
	C269.025085,178.371384 268.422241,176.764175 270.951019,174.535583 
	C272.563293,173.114716 274.100586,171.608780 275.974945,169.958740 
z"/>
<path fill="#0FB1F0" opacity="1.000000" stroke="none" 
	d="
M294.583679,92.671700 
	C291.485291,95.293259 288.692749,97.721809 285.020172,100.915680 
	C284.688385,99.476761 283.568420,97.206818 284.129700,96.658737 
	C290.685181,90.257790 297.478912,84.099747 304.265472,77.938957 
	C304.760864,77.489227 305.688538,77.515724 306.415253,77.320824 
	C306.751709,77.674660 307.088196,78.028496 307.424683,78.382332 
	C303.246277,83.081116 299.067902,87.779900 294.583679,92.671700 
z"/>
<path fill="#10B1F0" opacity="1.000000" stroke="none" 
	d="
M269.011353,47.886330 
	C271.063080,46.576527 272.923492,45.575668 274.783905,44.574814 
	C275.210815,45.160831 275.637695,45.746849 276.064606,46.332867 
	C268.510193,53.679508 260.955780,61.026150 253.401352,68.372795 
	C252.845245,68.055992 252.289124,67.739189 251.733017,67.422394 
	C251.960083,66.314926 251.807907,64.831444 252.474167,64.159424 
	C257.835724,58.751686 263.351440,53.496841 269.011353,47.886330 
z"/>
<path fill="#FAFBFC" opacity="1.000000" stroke="none" 
	d="
M119.854782,197.818604 
	C106.576118,191.416824 96.011353,182.290298 87.437515,170.777298 
	C86.994263,170.182083 86.056839,169.954895 85.136772,169.277786 
	C83.449387,164.676559 82.122398,160.296814 80.477196,156.040070 
	C64.124603,113.729820 90.908798,66.146133 135.542496,57.843864 
	C152.623642,54.666622 168.581177,57.401390 184.469177,65.378448 
	C186.335434,66.476677 187.655563,67.261665 188.975677,68.046654 
	C200.303360,75.628120 209.393051,85.213570 215.669189,97.788116 
	C218.254593,107.652496 222.115967,117.207176 222.619125,126.935562 
	C224.670914,166.604782 195.495682,199.922852 155.916656,202.933334 
	C145.240875,203.745377 134.288666,201.046509 123.480286,199.811081 
	C122.333046,199.679947 121.300186,198.548172 119.854782,197.818604 
M213.889114,129.914688 
	C215.405823,128.314590 218.444595,126.391991 218.185303,125.168205 
	C216.794708,118.605255 214.582565,112.216385 212.575348,104.995750 
	C211.605103,102.700409 210.838455,100.291107 209.628769,98.129784 
	C204.822311,89.542130 200.059753,80.856056 190.862030,76.003876 
	C186.461517,73.682426 179.047272,75.346230 175.195526,79.565567 
	C177.775299,80.713051 180.252960,81.815109 183.032166,83.051300 
	C177.068832,85.160362 171.857880,87.003342 166.493454,88.900589 
	C167.731766,90.699402 168.606506,91.970062 169.811996,93.721191 
	C168.264938,93.721191 167.443848,93.624435 166.654053,93.740479 
	C164.761688,94.018501 162.884018,94.396568 161.000427,94.734253 
	C161.659729,96.942650 162.285034,99.162056 162.994400,101.354256 
	C163.295212,102.283875 163.772461,103.156395 163.530121,104.360497 
	C162.226929,106.220284 161.330841,108.769951 159.550232,109.820679 
	C151.747360,114.425102 151.794464,121.562866 152.679688,129.077896 
	C153.670303,137.487717 160.113342,142.743515 168.548569,141.923965 
	C170.312866,141.752548 171.994522,140.824692 173.738495,140.330933 
	C177.724701,139.202332 184.290985,142.026001 183.417984,144.606644 
	C181.805634,149.372742 184.822784,152.527588 186.044662,156.342056 
	C186.481384,157.705475 187.128418,159.585098 186.557648,160.595200 
	C182.049011,168.574066 187.148453,175.217621 188.671844,182.256210 
	C189.567139,182.304703 189.925064,182.426804 190.198639,182.324112 
	C201.187714,178.199188 203.861053,167.379181 209.177002,158.688568 
	C209.327393,158.442673 209.278610,158.023697 209.216187,157.706375 
	C207.951080,151.277420 210.420395,146.119385 214.283096,141.154968 
	C217.754257,136.693802 217.286301,135.416290 212.755402,132.173752 
	C212.131516,131.727280 211.840775,130.815292 212.295258,130.029831 
	C212.591583,129.976151 212.887909,129.922470 213.889114,129.914688 
M94.584702,138.291702 
	C94.687355,139.653397 94.779312,141.016006 94.894691,142.376633 
	C95.224495,146.265839 95.563828,150.154221 95.868385,154.618683 
	C96.190872,155.077026 96.513359,155.535385 96.891060,156.715012 
	C101.864723,162.947357 104.989609,169.868423 105.113983,178.001984 
	C105.138878,179.630096 105.464096,181.421295 106.218590,182.834091 
	C107.597160,185.415466 109.399872,187.770355 110.369164,189.230637 
	C114.145889,186.480896 116.995445,184.513260 119.716705,182.381805 
	C121.174782,181.239792 122.434692,179.838242 123.742966,178.513245 
	C125.192360,177.045364 126.631332,175.563889 128.008362,174.028687 
	C129.634354,172.215912 132.448334,170.373917 132.500351,168.482773 
	C132.594971,165.043243 133.789642,162.623856 135.734573,160.075684 
	C137.753433,157.430664 138.106430,155.042648 133.935425,153.744431 
	C128.870453,152.167969 123.931145,150.187744 119.371658,148.539185 
	C118.912521,146.408463 119.199524,142.745911 117.699127,141.734253 
	C113.558929,138.942642 108.527443,137.517242 104.123619,135.058655 
	C100.412781,132.986954 97.802757,134.025238 94.885376,136.170059 
	C93.326035,132.298904 91.766693,128.427734 89.812508,123.576332 
	C88.634712,125.667953 86.020760,128.554810 86.615723,129.580811 
	C88.438652,132.724258 91.493309,135.153442 94.584702,138.291702 
M114.082344,73.103020 
	C115.116005,73.567513 116.149673,74.031998 117.183334,74.496490 
	C116.823647,74.692856 116.463959,74.889221 116.104271,75.085579 
	C116.620087,76.469704 116.818214,78.733620 117.716675,79.058052 
	C119.695206,79.772499 122.899109,80.503014 124.069740,79.477257 
	C130.409744,73.921875 137.711853,71.282623 144.869904,70.910027 
	C145.789444,66.116226 151.163834,67.249878 152.774292,64.058777 
	C138.311020,61.228512 125.234840,63.418991 114.082344,73.103020 
M101.899887,97.848923 
	C102.852699,97.237000 103.805511,96.625084 104.977905,95.872147 
	C103.649574,94.859116 102.563019,94.030464 100.929665,92.784805 
	C104.596024,91.115913 107.659325,89.721519 111.044540,88.180595 
	C108.878067,86.421555 107.154457,85.022087 106.204826,84.251053 
	C103.942970,84.635971 102.396507,84.663284 101.044861,85.190269 
	C99.439880,85.816017 97.714424,86.596497 96.559937,87.805351 
	C94.826614,89.620316 93.593185,91.903122 92.061600,93.922066 
	C87.027016,100.558716 83.381493,107.743500 82.450035,115.732086 
	C84.933609,115.732086 86.814293,115.732086 87.932976,115.732086 
	C90.889999,110.536430 93.668320,105.309242 96.837723,100.331032 
	C97.621292,99.100258 99.674911,98.678047 101.899887,97.848923 
z"/>
<path fill="#3E439A" opacity="1.000000" stroke="none" 
	d="
M73.251999,49.247967 
	C75.719360,46.795971 77.772896,44.384689 80.219124,42.476948 
	C81.527184,41.456821 83.512253,41.304802 85.191795,40.761005 
	C85.375710,41.161156 85.559631,41.561306 85.743553,41.961456 
	C78.678001,49.398705 71.612450,56.835949 64.546898,64.273201 
	C63.869625,63.947189 63.192356,63.621181 62.515087,63.295174 
	C62.847198,62.041969 62.814014,60.473305 63.575809,59.591171 
	C66.582237,56.109833 69.838181,52.843975 73.251999,49.247967 
z"/>
<path fill="#42459C" opacity="1.000000" stroke="none" 
	d="
M189.131042,67.739525 
	C187.655563,67.261665 186.335434,66.476677 184.813492,65.427460 
	C186.514160,63.986221 188.343872,62.662434 190.339432,61.673191 
	C192.368622,60.667282 194.561234,59.991058 195.403229,58.724365 
	C193.364288,61.627045 191.325348,64.529724 189.131042,67.739525 
z"/>
<path fill="#4A4C9F" opacity="1.000000" stroke="none" 
	d="
M120.466080,201.449585 
	C120.520943,201.417206 120.411217,201.481949 120.466080,201.449585 
z"/>
<path fill="#343995" opacity="1.000000" stroke="none" 
	d="
M211.395813,130.118820 
	C211.840775,130.815292 212.131516,131.727280 212.755402,132.173752 
	C217.286301,135.416290 217.754257,136.693802 214.283096,141.154968 
	C210.420395,146.119385 207.951080,151.277420 209.216187,157.706375 
	C209.278610,158.023697 209.327393,158.442673 209.177002,158.688568 
	C203.861053,167.379181 201.187714,178.199188 190.198639,182.324112 
	C189.925064,182.426804 189.567139,182.304703 188.671844,182.256210 
	C187.148453,175.217621 182.049011,168.574066 186.557648,160.595200 
	C187.128418,159.585098 186.481384,157.705475 186.044662,156.342056 
	C184.822784,152.527588 181.805634,149.372742 183.417984,144.606644 
	C184.290985,142.026001 177.724701,139.202332 173.738495,140.330933 
	C171.994522,140.824692 170.312866,141.752548 168.548569,141.923965 
	C160.113342,142.743515 153.670303,137.487717 152.679688,129.077896 
	C151.794464,121.562866 151.747360,114.425102 159.550232,109.820679 
	C161.330841,108.769951 162.226929,106.220284 164.181519,104.193581 
	C165.569946,103.651291 166.306976,103.275909 167.481018,102.941216 
	C170.522247,102.680725 173.121124,102.317741 175.731918,102.093399 
	C179.304276,101.786430 182.494568,101.125938 184.642242,105.875191 
	C185.615417,108.027245 191.348038,110.316711 193.050659,109.326607 
	C195.783173,107.737617 197.104904,108.600029 199.112900,109.528641 
	C201.042374,110.420937 203.034668,111.177383 204.966766,112.336105 
	C203.335846,115.661751 204.805222,117.873169 206.793747,120.349876 
	C208.346298,123.865448 209.871048,126.992134 211.395813,130.118820 
z"/>
<path fill="#373B97" opacity="1.000000" stroke="none" 
	d="
M95.899406,154.042938 
	C95.563828,150.154221 95.224495,146.265839 94.894691,142.376633 
	C94.779312,141.016006 94.687355,139.653397 94.480370,137.847809 
	C94.680473,137.199692 94.984909,136.995468 95.289352,136.791245 
	C97.802757,134.025238 100.412781,132.986954 104.123619,135.058655 
	C108.527443,137.517242 113.558929,138.942642 117.699127,141.734253 
	C119.199524,142.745911 118.912521,146.408463 119.371658,148.539185 
	C123.931145,150.187744 128.870453,152.167969 133.935425,153.744431 
	C138.106430,155.042648 137.753433,157.430664 135.734573,160.075684 
	C133.789642,162.623856 132.594971,165.043243 132.500351,168.482773 
	C132.448334,170.373917 129.634354,172.215912 128.008362,174.028687 
	C126.631332,175.563889 125.192360,177.045364 123.742966,178.513245 
	C122.434692,179.838242 121.174782,181.239792 119.716705,182.381805 
	C116.995445,184.513260 114.145889,186.480896 110.369164,189.230637 
	C109.399872,187.770355 107.597160,185.415466 106.218590,182.834091 
	C105.464096,181.421295 105.138878,179.630096 105.113983,178.001984 
	C104.989609,169.868423 101.864723,162.947357 97.298737,156.358429 
	C98.513824,155.997910 99.377014,156.173996 100.114769,155.945358 
	C101.077530,155.646973 102.034340,155.136475 102.792465,154.483566 
	C103.032516,154.276825 102.666122,152.804306 102.512177,152.792953 
	C101.525177,152.720108 100.501068,152.802338 99.525726,153.007477 
	C98.298645,153.265564 97.106583,153.690186 95.899406,154.042938 
z"/>
<path fill="#3D4099" opacity="1.000000" stroke="none" 
	d="
M167.043976,102.900528 
	C166.306976,103.275909 165.569946,103.651291 164.501236,104.040764 
	C163.772461,103.156395 163.295212,102.283875 162.994400,101.354256 
	C162.285034,99.162056 161.659729,96.942650 161.000427,94.734253 
	C162.884018,94.396568 164.761688,94.018501 166.654053,93.740479 
	C167.443848,93.624435 168.264938,93.721191 169.811996,93.721191 
	C168.606506,91.970062 167.731766,90.699402 166.493454,88.900589 
	C171.857880,87.003342 177.068832,85.160362 183.032166,83.051300 
	C180.252960,81.815109 177.775299,80.713051 175.195526,79.565567 
	C179.047272,75.346230 186.461517,73.682426 190.862030,76.003876 
	C200.059753,80.856056 204.822311,89.542130 209.628769,98.129784 
	C210.838455,100.291107 211.605103,102.700409 212.208542,105.454643 
	C209.878906,106.609940 207.916061,107.306351 205.766510,107.694756 
	C203.317032,105.569214 201.054276,103.751663 199.214142,101.826622 
	C202.274796,102.133621 204.912842,102.548111 207.550873,102.962608 
	C207.775543,102.580444 208.000214,102.198288 208.224884,101.816124 
	C206.237167,99.662224 204.249451,97.508316 203.099930,96.262695 
	C199.342667,98.229004 196.672897,99.626190 193.653488,101.023689 
	C190.979630,98.826012 188.655380,96.628021 186.331146,94.430023 
	C186.036880,94.734909 185.742615,95.039795 185.448364,95.344681 
	C185.628738,96.133492 185.809097,96.922295 186.181686,98.551674 
	C183.795593,97.474762 182.129379,96.238960 180.350082,96.046021 
	C178.272995,95.820778 175.760818,95.929222 174.042633,96.930977 
	C171.435745,98.450851 169.350708,100.865807 167.043976,102.900528 
M184.838577,84.038338 
	C184.744446,84.173256 184.618668,84.297485 184.568115,84.447121 
	C184.538071,84.536079 184.609863,84.753120 184.664001,84.763321 
	C186.884598,85.182014 189.108429,85.583717 191.331833,85.987564 
	C191.528427,85.395950 191.725006,84.804337 191.921585,84.212723 
	C190.748184,82.709358 189.574768,81.206001 188.222855,79.473930 
	C186.999847,81.385002 186.242996,82.567627 184.838577,84.038338 
z"/>
<path fill="#3A3E98" opacity="1.000000" stroke="none" 
	d="
M113.870964,72.847504 
	C125.234840,63.418991 138.311020,61.228512 152.774292,64.058777 
	C151.163834,67.249878 145.789444,66.116226 144.869904,70.910027 
	C137.711853,71.282623 130.409744,73.921875 124.069740,79.477257 
	C122.899109,80.503014 119.695206,79.772499 117.716675,79.058052 
	C116.818214,78.733620 116.620087,76.469704 116.104271,75.085579 
	C116.463959,74.889221 116.823647,74.692856 117.183334,74.496490 
	C116.149673,74.031998 115.116005,73.567513 113.870964,72.847504 
z"/>
<path fill="#42459B" opacity="1.000000" stroke="none" 
	d="
M101.522293,97.866531 
	C99.674911,98.678047 97.621292,99.100258 96.837723,100.331032 
	C93.668320,105.309242 90.889999,110.536430 87.932976,115.732086 
	C86.814293,115.732086 84.933609,115.732086 82.450035,115.732086 
	C83.381493,107.743500 87.027016,100.558716 92.061600,93.922066 
	C93.593185,91.903122 94.826614,89.620316 96.559937,87.805351 
	C97.714424,86.596497 99.439880,85.816017 101.044861,85.190269 
	C102.396507,84.663284 103.942970,84.635971 106.204826,84.251053 
	C107.154457,85.022087 108.878067,86.421555 111.044540,88.180595 
	C107.659325,89.721519 104.596024,91.115913 100.929665,92.784805 
	C102.563019,94.030464 103.649574,94.859116 104.977905,95.872147 
	C103.805511,96.625084 102.852699,97.237000 101.522293,97.866531 
z"/>
<path fill="#42459C" opacity="1.000000" stroke="none" 
	d="
M205.953232,108.002754 
	C207.916061,107.306351 209.878906,106.609940 212.247986,105.840462 
	C214.582565,112.216385 216.794708,118.605255 218.185303,125.168205 
	C218.444595,126.391991 215.405823,128.314590 213.461731,129.527924 
	C212.318665,127.315002 211.877304,125.303986 210.807526,123.716408 
	C209.806732,122.231194 208.139740,121.194870 206.765945,119.960983 
	C204.805222,117.873169 203.335846,115.661751 205.174927,112.057930 
	C205.594864,110.292358 205.774048,109.147560 205.953232,108.002754 
z"/>
<path fill="#5D5FA8" opacity="1.000000" stroke="none" 
	d="
M95.087357,136.480652 
	C94.984909,136.995468 94.680473,137.199692 94.222504,137.632172 
	C91.493309,135.153442 88.438652,132.724258 86.615723,129.580811 
	C86.020760,128.554810 88.634712,125.667953 89.812508,123.576332 
	C91.766693,128.427734 93.326035,132.298904 95.087357,136.480652 
z"/>
<path fill="#C6CCDD" opacity="1.000000" stroke="none" 
	d="
M206.793747,120.349869 
	C208.139740,121.194870 209.806732,122.231194 210.807526,123.716408 
	C211.877304,125.303986 212.318665,127.315002 213.109283,129.504974 
	C212.887909,129.922470 212.591583,129.976151 211.845520,130.074326 
	C209.871048,126.992134 208.346298,123.865448 206.793747,120.349869 
z"/>
<path fill="#40459C" opacity="1.000000" stroke="none" 
	d="
M95.883896,154.330811 
	C97.106583,153.690186 98.298645,153.265564 99.525726,153.007477 
	C100.501068,152.802338 101.525177,152.720108 102.512177,152.792953 
	C102.666122,152.804306 103.032516,154.276825 102.792465,154.483566 
	C102.034340,155.136475 101.077530,155.646973 100.114769,155.945358 
	C99.377014,156.173996 98.513824,155.997910 97.271133,155.997772 
	C96.513359,155.535385 96.190872,155.077026 95.883896,154.330811 
z"/>
<path fill="#EBEEF2" opacity="1.000000" stroke="none" 
	d="
M205.766510,107.694756 
	C205.774048,109.147560 205.594864,110.292358 205.207520,111.715347 
	C203.034668,111.177383 201.042374,110.420937 199.112900,109.528641 
	C197.104904,108.600029 195.783173,107.737617 193.050659,109.326607 
	C191.348038,110.316711 185.615417,108.027245 184.642242,105.875191 
	C182.494568,101.125938 179.304276,101.786430 175.731918,102.093399 
	C173.121124,102.317741 170.522247,102.680725 167.481018,102.941208 
	C169.350708,100.865807 171.435745,98.450851 174.042633,96.930977 
	C175.760818,95.929222 178.272995,95.820778 180.350082,96.046021 
	C182.129379,96.238960 183.795593,97.474762 186.181686,98.551674 
	C185.809097,96.922295 185.628738,96.133492 185.448364,95.344681 
	C185.742615,95.039795 186.036880,94.734909 186.331146,94.430023 
	C188.655380,96.628021 190.979630,98.826012 193.685944,101.344498 
	C195.642502,101.754692 197.217010,101.844406 198.791504,101.934120 
	C201.054276,103.751663 203.317032,105.569214 205.766510,107.694756 
z"/>
<path fill="#DCDFE9" opacity="1.000000" stroke="none" 
	d="
M199.214142,101.826622 
	C197.217010,101.844406 195.642502,101.754692 194.035553,101.344177 
	C196.672897,99.626190 199.342667,98.229004 203.099930,96.262695 
	C204.249451,97.508316 206.237167,99.662224 208.224884,101.816124 
	C208.000214,102.198288 207.775543,102.580444 207.550873,102.962608 
	C204.912842,102.548111 202.274796,102.133621 199.214142,101.826622 
z"/>
<path fill="#D7DBE5" opacity="1.000000" stroke="none" 
	d="
M185.162369,83.894302 
	C186.242996,82.567627 186.999847,81.385002 188.222855,79.473930 
	C189.574768,81.206001 190.748184,82.709358 191.921585,84.212723 
	C191.725006,84.804337 191.528427,85.395950 191.331833,85.987564 
	C189.108429,85.583717 186.884598,85.182014 184.664001,84.763321 
	C184.609863,84.753120 184.538071,84.536079 184.568115,84.447121 
	C184.618668,84.297485 184.744446,84.173256 185.162369,83.894302 
z"/>
</svg>